<svg width="1680" height="1166" viewBox="0 0 1680 1166" fill="none" xmlns="http://www.w3.org/2000/svg">
<g filter="url(#filter0_b_0_1)">
<path d="M1640 285H40L40 230.756L1640 40V285Z" fill="#EF2A82"/>
<path d="M1639.5 284.5H40.5L40.5 231.2L1639.5 40.5632V284.5Z" stroke="black"/>
</g>
<g filter="url(#filter1_b_0_1)">
<path d="M1640 1126H40L40.0003 243.721L1640 57V1126Z" fill="#172755"/>
</g>
<g opacity="0.07">
<path d="M2469.54 697.483C2288.46 433.306 1984.47 260 1640 260C1084.95 260 635 709.953 635 1265C635 1345.75 644.524 1424.28 662.509 1499.52L1174.29 987.732C1223.35 938.672 1302.9 938.672 1351.96 987.732L1765.62 1401.4L2469.54 697.483Z" fill="#8794BA"/>
<path d="M2588.99 933.356L1854.46 1667.89C1805.4 1716.95 1725.85 1716.95 1676.79 1667.89L1263.12 1254.22L762.343 1755.01C934.264 2062.28 1262.87 2270 1640 2270C2195.05 2270 2645 1820.05 2645 1265C2645 1148.79 2625.28 1037.19 2588.99 933.356Z" fill="#8794BA"/>
</g>
<rect x="43" y="43" width="77.4531" height="26" rx="2" fill="black"/>
<rect x="43.5" y="43.5" width="76.4531" height="25" rx="1.5" stroke="black" stroke-opacity="0.14902"/>
<path d="M47.9688 59V51H50.6719C51.2969 51 51.8099 51.1068 52.2109 51.3203C52.612 51.5312 52.9089 51.8216 53.1016 52.1914C53.2943 52.5612 53.3906 52.9818 53.3906 53.4531C53.3906 53.9245 53.2943 54.3424 53.1016 54.707C52.9089 55.0716 52.6133 55.3581 52.2148 55.5664C51.8164 55.7721 51.3073 55.875 50.6875 55.875H48.5V55H50.6563C51.0833 55 51.4271 54.9375 51.6875 54.8125C51.9505 54.6875 52.1406 54.5104 52.2578 54.2812C52.3776 54.0495 52.4375 53.7734 52.4375 53.4531C52.4375 53.1328 52.3776 52.8529 52.2578 52.6133C52.138 52.3737 51.9466 52.1888 51.6836 52.0586C51.4206 51.9258 51.0729 51.8594 50.6406 51.8594H48.9375V59H47.9688ZM51.7344 55.4062L53.7031 59H52.5781L50.6406 55.4062H51.7344ZM57.3311 59.125C56.7529 59.125 56.2542 58.9974 55.835 58.7422C55.4183 58.4844 55.0967 58.125 54.8701 57.6641C54.6462 57.2005 54.5342 56.6615 54.5342 56.0469C54.5342 55.4323 54.6462 54.8906 54.8701 54.4219C55.0967 53.9505 55.4118 53.5833 55.8154 53.3203C56.2217 53.0547 56.6956 52.9219 57.2373 52.9219C57.5498 52.9219 57.8584 52.974 58.1631 53.0781C58.4678 53.1823 58.7451 53.3516 58.9951 53.5859C59.2451 53.8177 59.4443 54.125 59.5928 54.5078C59.7412 54.8906 59.8154 55.362 59.8154 55.9219V56.3125H55.1904V55.5156H58.8779C58.8779 55.1771 58.8102 54.875 58.6748 54.6094C58.542 54.3437 58.3519 54.1341 58.1045 53.9805C57.8597 53.8268 57.5706 53.75 57.2373 53.75C56.8701 53.75 56.5524 53.8411 56.2842 54.0234C56.0186 54.2031 55.8141 54.4375 55.6709 54.7266C55.5277 55.0156 55.4561 55.3255 55.4561 55.6562V56.1875C55.4561 56.6406 55.5342 57.0247 55.6904 57.3398C55.8493 57.6523 56.0693 57.8906 56.3506 58.0547C56.6318 58.2161 56.9587 58.2969 57.3311 58.2969C57.5732 58.2969 57.792 58.263 57.9873 58.1953C58.1852 58.125 58.3558 58.0208 58.499 57.8828C58.6423 57.7422 58.7529 57.5677 58.8311 57.3594L59.7217 57.6094C59.6279 57.9115 59.4704 58.1771 59.249 58.4062C59.0277 58.6328 58.7542 58.8099 58.4287 58.9375C58.1032 59.0625 57.7373 59.125 57.3311 59.125ZM63.6553 59.125C63.0928 59.125 62.6084 58.9922 62.2021 58.7266C61.7959 58.4609 61.4834 58.0951 61.2646 57.6289C61.0459 57.1628 60.9365 56.6302 60.9365 56.0312C60.9365 55.4219 61.0485 54.8841 61.2725 54.418C61.499 53.9492 61.8141 53.5833 62.2178 53.3203C62.624 53.0547 63.098 52.9219 63.6396 52.9219C64.0615 52.9219 64.4417 53 64.7803 53.1562C65.1188 53.3125 65.3962 53.5312 65.6123 53.8125C65.8285 54.0937 65.9626 54.4219 66.0146 54.7969H65.0928C65.0225 54.5234 64.8662 54.2812 64.624 54.0703C64.3844 53.8568 64.0615 53.75 63.6553 53.75C63.2959 53.75 62.9808 53.8437 62.71 54.0312C62.4417 54.2161 62.2321 54.4779 62.0811 54.8164C61.9326 55.1523 61.8584 55.5469 61.8584 56C61.8584 56.4635 61.9313 56.8672 62.0771 57.2109C62.2256 57.5547 62.4339 57.8216 62.7021 58.0117C62.973 58.2018 63.2907 58.2969 63.6553 58.2969C63.8949 58.2969 64.1123 58.2552 64.3076 58.1719C64.5029 58.0885 64.6683 57.9688 64.8037 57.8125C64.9391 57.6562 65.0355 57.4687 65.0928 57.25H66.0146C65.9626 57.6042 65.8337 57.9232 65.6279 58.207C65.4248 58.4883 65.1553 58.7122 64.8193 58.8789C64.486 59.043 64.098 59.125 63.6553 59.125ZM69.9717 53V53.7812H66.8623V53H69.9717ZM67.7686 51.5625H68.6904V57.2812C68.6904 57.5417 68.7282 57.737 68.8037 57.8672C68.8818 57.9948 68.9808 58.0807 69.1006 58.125C69.223 58.1667 69.3519 58.1875 69.4873 58.1875C69.5889 58.1875 69.6722 58.1823 69.7373 58.1719C69.8024 58.1589 69.8545 58.1484 69.8936 58.1406L70.0811 58.9687C70.0186 58.9922 69.9313 59.0156 69.8193 59.0391C69.7074 59.0651 69.5654 59.0781 69.3936 59.0781C69.1331 59.0781 68.8779 59.0221 68.6279 58.9102C68.3805 58.7982 68.1748 58.6276 68.0107 58.3984C67.8493 58.1693 67.7686 57.8802 67.7686 57.5312V51.5625ZM73.124 59.1406C72.7438 59.1406 72.3988 59.069 72.0889 58.9258C71.779 58.7799 71.5329 58.5703 71.3506 58.2969C71.1683 58.0208 71.0771 57.6875 71.0771 57.2969C71.0771 56.9531 71.1449 56.6745 71.2803 56.4609C71.4157 56.2448 71.5967 56.0755 71.8232 55.9531C72.0498 55.8307 72.2998 55.7396 72.5732 55.6797C72.8493 55.6172 73.1266 55.5677 73.4053 55.5313C73.7699 55.4844 74.0654 55.4492 74.292 55.4258C74.5212 55.3997 74.6878 55.3568 74.792 55.2969C74.8988 55.237 74.9521 55.1328 74.9521 54.9844V54.9531C74.9521 54.5677 74.8467 54.2682 74.6357 54.0547C74.4274 53.8411 74.111 53.7344 73.6865 53.7344C73.2464 53.7344 72.9014 53.8307 72.6514 54.0234C72.4014 54.2161 72.2256 54.4219 72.124 54.6406L71.249 54.3281C71.4053 53.9635 71.6136 53.6797 71.874 53.4766C72.137 53.2708 72.4235 53.1276 72.7334 53.0469C73.0459 52.9635 73.3532 52.9219 73.6553 52.9219C73.848 52.9219 74.0693 52.9453 74.3193 52.9922C74.5719 53.0365 74.8154 53.1289 75.0498 53.2695C75.2868 53.4102 75.4834 53.6224 75.6396 53.9062C75.7959 54.1901 75.874 54.5703 75.874 55.0469V59H74.9521V58.1875H74.9053C74.8428 58.3177 74.7386 58.457 74.5928 58.6055C74.4469 58.7539 74.2529 58.8802 74.0107 58.9844C73.7686 59.0885 73.473 59.1406 73.124 59.1406ZM73.2646 58.3125C73.6292 58.3125 73.9365 58.2409 74.1865 58.0977C74.4391 57.9544 74.6292 57.7695 74.7568 57.543C74.887 57.3164 74.9521 57.0781 74.9521 56.8281V55.9844C74.9131 56.0312 74.8271 56.0742 74.6943 56.1133C74.5641 56.1497 74.4131 56.1823 74.2412 56.2109C74.0719 56.237 73.9066 56.2604 73.7451 56.2812C73.5863 56.2995 73.4574 56.3151 73.3584 56.3281C73.1188 56.3594 72.8949 56.4102 72.6865 56.4805C72.4808 56.5482 72.3141 56.651 72.1865 56.7891C72.0615 56.9245 71.999 57.1094 71.999 57.3437C71.999 57.6641 72.1175 57.9062 72.3545 58.0703C72.5941 58.2318 72.8975 58.3125 73.2646 58.3125ZM78.4785 55.3906V59H77.5566V53H78.4473V53.9375H78.5254C78.666 53.6328 78.8796 53.388 79.166 53.2031C79.4525 53.0156 79.8223 52.9219 80.2754 52.9219C80.6816 52.9219 81.0371 53.0052 81.3418 53.1719C81.6465 53.3359 81.8835 53.5859 82.0527 53.9219C82.222 54.2552 82.3066 54.6771 82.3066 55.1875V59H81.3848V55.25C81.3848 54.7786 81.2624 54.4115 81.0176 54.1484C80.7728 53.8828 80.4368 53.75 80.0098 53.75C79.7155 53.75 79.4525 53.8138 79.2207 53.9414C78.9915 54.069 78.8105 54.2552 78.6777 54.5C78.5449 54.7448 78.4785 55.0417 78.4785 55.3906ZM86.4131 61.375C85.9678 61.375 85.585 61.3177 85.2646 61.2031C84.9443 61.0911 84.6774 60.9427 84.4639 60.7578C84.2529 60.5755 84.085 60.3802 83.96 60.1719L84.6943 59.6563C84.7777 59.7656 84.8831 59.8906 85.0107 60.0312C85.1383 60.1745 85.3128 60.2982 85.5342 60.4023C85.7581 60.5091 86.0511 60.5625 86.4131 60.5625C86.8975 60.5625 87.2972 60.4453 87.6123 60.2109C87.9274 59.9766 88.085 59.6094 88.085 59.1094V57.8906H88.0068C87.9391 58 87.8428 58.1354 87.7178 58.2969C87.5954 58.4557 87.4183 58.5977 87.1865 58.7227C86.9574 58.8451 86.6475 58.9062 86.2568 58.9062C85.7725 58.9062 85.3376 58.7917 84.9521 58.5625C84.5693 58.3333 84.266 58 84.042 57.5625C83.8206 57.125 83.71 56.5937 83.71 55.9687C83.71 55.3542 83.818 54.819 84.0342 54.3633C84.2503 53.9049 84.5511 53.5508 84.9365 53.3008C85.3219 53.0482 85.7673 52.9219 86.2725 52.9219C86.6631 52.9219 86.973 52.987 87.2021 53.1172C87.4339 53.2448 87.611 53.3906 87.7334 53.5547C87.8584 53.7161 87.9548 53.849 88.0225 53.9531H88.1162V53H89.0068V59.1719C89.0068 59.6875 88.8896 60.1068 88.6553 60.4297C88.4235 60.7552 88.111 60.9935 87.7178 61.1445C87.3271 61.2982 86.8923 61.375 86.4131 61.375ZM86.3818 58.0781C86.7516 58.0781 87.0641 57.9935 87.3193 57.8242C87.5745 57.6549 87.7686 57.4115 87.9014 57.0938C88.0342 56.776 88.1006 56.3958 88.1006 55.9531C88.1006 55.5208 88.0355 55.1393 87.9053 54.8086C87.7751 54.4779 87.5824 54.2187 87.3271 54.0312C87.0719 53.8437 86.7568 53.75 86.3818 53.75C85.9912 53.75 85.6657 53.849 85.4053 54.0469C85.1475 54.2448 84.9535 54.5104 84.8232 54.8438C84.6956 55.1771 84.6318 55.5469 84.6318 55.9531C84.6318 56.3698 84.6969 56.7383 84.8271 57.0586C84.96 57.3763 85.1553 57.6263 85.4131 57.8086C85.6735 57.9883 85.9964 58.0781 86.3818 58.0781ZM91.6162 51V59H90.6943V51H91.6162ZM95.8203 59.125C95.2422 59.125 94.7435 58.9974 94.3242 58.7422C93.9076 58.4844 93.5859 58.125 93.3594 57.6641C93.1354 57.2005 93.0234 56.6615 93.0234 56.0469C93.0234 55.4323 93.1354 54.8906 93.3594 54.4219C93.5859 53.9505 93.901 53.5833 94.3047 53.3203C94.7109 53.0547 95.1849 52.9219 95.7266 52.9219C96.0391 52.9219 96.3477 52.974 96.6523 53.0781C96.957 53.1823 97.2344 53.3516 97.4844 53.5859C97.7344 53.8177 97.9336 54.125 98.082 54.5078C98.2305 54.8906 98.3047 55.362 98.3047 55.9219V56.3125H93.6797V55.5156H97.3672C97.3672 55.1771 97.2995 54.875 97.1641 54.6094C97.0313 54.3437 96.8411 54.1341 96.5938 53.9805C96.349 53.8268 96.0599 53.75 95.7266 53.75C95.3594 53.75 95.0417 53.8411 94.7734 54.0234C94.5078 54.2031 94.3034 54.4375 94.1602 54.7266C94.0169 55.0156 93.9453 55.3255 93.9453 55.6562V56.1875C93.9453 56.6406 94.0234 57.0247 94.1797 57.3398C94.3385 57.6523 94.5586 57.8906 94.8398 58.0547C95.1211 58.2161 95.4479 58.2969 95.8203 58.2969C96.0625 58.2969 96.2813 58.263 96.4766 58.1953C96.6745 58.125 96.8451 58.0208 96.9883 57.8828C97.1315 57.7422 97.2422 57.5677 97.3203 57.3594L98.2109 57.6094C98.1172 57.9115 97.9596 58.1771 97.7383 58.4062C97.5169 58.6328 97.2435 58.8099 96.918 58.9375C96.5924 59.0625 96.2266 59.125 95.8203 59.125ZM103.035 59L106.613 51.9219V51.8594H102.488V51H107.613V51.9062L104.051 59H103.035ZM114.976 51V59H114.007V52.0156H113.96L112.007 53.3125V52.3281L114.007 51H114.976Z" fill="white"/>
<defs>
<filter id="filter0_b_0_1" x="-60" y="-60" width="1800" height="445" filterUnits="userSpaceOnUse" color-interpolation-filters="sRGB">
<feFlood flood-opacity="0" result="BackgroundImageFix"/>
<feGaussianBlur in="BackgroundImageFix" stdDeviation="50"/>
<feComposite in2="SourceAlpha" operator="in" result="effect1_backgroundBlur_0_1"/>
<feBlend mode="normal" in="SourceGraphic" in2="effect1_backgroundBlur_0_1" result="shape"/>
</filter>
<filter id="filter1_b_0_1" x="36" y="53" width="1608" height="1077" filterUnits="userSpaceOnUse" color-interpolation-filters="sRGB">
<feFlood flood-opacity="0" result="BackgroundImageFix"/>
<feGaussianBlur in="BackgroundImageFix" stdDeviation="2"/>
<feComposite in2="SourceAlpha" operator="in" result="effect1_backgroundBlur_0_1"/>
<feBlend mode="normal" in="SourceGraphic" in2="effect1_backgroundBlur_0_1" result="shape"/>
</filter>
</defs>
</svg>
